<svg width="40" height="40" viewBox="0 0 40 40" fill="none" xmlns="http://www.w3.org/2000/svg">
<mask id="mask0_215_7198" style="mask-type:alpha" maskUnits="userSpaceOnUse" x="0" y="0" width="40" height="40">
<rect width="40" height="40" fill="#D9D9D9"/>
</mask>
<g mask="url(#mask0_215_7198)">
<path d="M28.9709 20.705H9.03801C8.64865 20.705 8.33301 20.3894 8.33301 20C8.33301 19.6106 8.64865 19.295 9.03801 19.295H28.9709L19.5066 9.83066C19.2335 9.55758 19.2315 9.11546 19.5021 8.83995C19.7762 8.5609 20.2252 8.55888 20.5018 8.83545L31.0115 19.3452C31.3732 19.7069 31.3732 20.2932 31.0115 20.6548L20.5018 31.1646C20.2252 31.4411 19.7762 31.4391 19.5021 31.1601C19.2315 30.8846 19.2335 30.4424 19.5066 30.1694L28.9709 20.705Z" fill="black"/>
</g>
</svg>
