<svg width="40" height="40" viewBox="0 0 40 40" fill="none" xmlns="http://www.w3.org/2000/svg">
<mask id="mask0_192_1109" style="mask-type:alpha" maskUnits="userSpaceOnUse" x="0" y="0" width="40" height="40">
<rect width="40" height="40" transform="matrix(-1 0 0 1 40 0)" fill="#D9D9D9"/>
</mask>
<g mask="url(#mask0_192_1109)">
<path d="M11.0291 20.705H30.962C31.3514 20.705 31.667 20.3894 31.667 20C31.667 19.6107 31.3514 19.295 30.962 19.295H11.0291L20.4934 9.83069C20.7665 9.55761 20.7685 9.11549 20.4979 8.83998C20.2238 8.56093 19.7748 8.55891 19.4982 8.83548L8.98845 19.3452C8.62682 19.7069 8.62682 20.2932 8.98845 20.6548L19.4982 31.1646C19.7748 31.4412 20.2238 31.4392 20.4979 31.1601C20.7685 30.8846 20.7665 30.4425 20.4934 30.1694L11.0291 20.705Z" fill="black"/>
</g>
</svg>
